<?xml version="1.0" encoding="UTF-8" standalone="no"?>
<!-- Created with Inkscape (http://www.inkscape.org/) -->

<svg
   width="280.59042mm"
   height="127.3316mm"
   viewBox="0 0 280.59042 127.3316"
   version="1.1"
   id="svg1"
   sodipodi:docname="tassel_splash.svg"
   inkscape:version="1.4.2 (ebf0e940, 2025-05-08)"
   xmlns:inkscape="http://www.inkscape.org/namespaces/inkscape"
   xmlns:sodipodi="http://sodipodi.sourceforge.net/DTD/sodipodi-0.dtd"
   xmlns="http://www.w3.org/2000/svg"
   xmlns:svg="http://www.w3.org/2000/svg">
  <sodipodi:namedview
     id="namedview1"
     pagecolor="#ffffff"
     bordercolor="#000000"
     borderopacity="0.25"
     inkscape:showpageshadow="2"
     inkscape:pageopacity="0.0"
     inkscape:pagecheckerboard="0"
     inkscape:deskcolor="#d1d1d1"
     inkscape:document-units="mm"
     inkscape:zoom="0.91843528"
     inkscape:cx="512.28433"
     inkscape:cy="248.79271"
     inkscape:window-width="2560"
     inkscape:window-height="1318"
     inkscape:window-x="0"
     inkscape:window-y="25"
     inkscape:window-maximized="1"
     inkscape:current-layer="layer1"
     showgrid="false" />
  <defs
     id="defs1" />
  <g
     inkscape:label="Layer 1"
     inkscape:groupmode="layer"
     id="layer1"
     transform="translate(-8.3543358,-13.827867)">
    <g
       id="g12"
       inkscape:export-filename="splash.png"
       inkscape:export-xdpi="100.04"
       inkscape:export-ydpi="100.04">
      <rect
         style="fill:#f2f2f2;fill-opacity:0.996078;fill-rule:evenodd;stroke:none;stroke-width:0.499999;stroke-linecap:round;stroke-linejoin:round"
         id="rect11"
         width="280.59042"
         height="127.3316"
         x="8.3543358"
         y="13.827867"
         ry="12.099382" />
      <text
         xml:space="preserve"
         style="font-weight:bold;font-size:45.8782px;line-height:133.611px;font-family:Palatino;-inkscape-font-specification:'Palatino Bold';text-align:center;letter-spacing:0px;writing-mode:lr-tb;direction:ltr;text-anchor:middle;fill:#4d4d4d;fill-opacity:0.996078;fill-rule:evenodd;stroke-width:0.500001;stroke-linecap:round;stroke-linejoin:round"
         x="79.146759"
         y="64.421524"
         id="text1"><tspan
           sodipodi:role="line"
           id="tspan1"
           style="font-style:normal;font-variant:normal;font-weight:normal;font-stretch:normal;font-family:'Bebas Neue';-inkscape-font-specification:'Bebas Neue';letter-spacing:0px;fill:#4d4d4d;stroke-width:0.500001"
           x="79.146759"
           y="64.421524">TASSEL <tspan
   style="fill:#d35f5f"
   id="tspan12">5</tspan></tspan></text>
      <text
         xml:space="preserve"
         style="font-weight:bold;font-size:10.1449px;line-height:11.8477px;font-family:Palatino;-inkscape-font-specification:'Palatino Bold';text-align:center;letter-spacing:0.0946347px;writing-mode:lr-tb;direction:ltr;text-anchor:middle;fill:#4d4d4d;fill-opacity:0.996078;fill-rule:evenodd;stroke-width:0.500001;stroke-linecap:round;stroke-linejoin:round"
         x="16.944204"
         y="79.336769"
         id="text1-4"><tspan
           sodipodi:role="line"
           style="font-style:normal;font-variant:normal;font-weight:normal;font-stretch:normal;font-size:10.1449px;line-height:11.8477px;font-family:Roboto;-inkscape-font-specification:Roboto;text-align:start;letter-spacing:0.0946347px;text-anchor:start;fill:#4d4d4d;stroke-width:0.500001"
           x="16.944204"
           y="79.336769"
           id="tspan2"><tspan
   style="font-weight:bold;letter-spacing:0.0946347px;stroke-width:0.500001"
   id="tspan4">T</tspan>rait <tspan
   style="font-weight:bold;letter-spacing:0.0946347px;stroke-width:0.500001"
   id="tspan5">A</tspan>nalysis by a<tspan
   style="font-weight:bold;letter-spacing:0.0946347px;stroke-width:0.500001"
   id="tspan6">SS</tspan>ociation, </tspan><tspan
           sodipodi:role="line"
           style="font-style:normal;font-variant:normal;font-weight:normal;font-stretch:normal;font-size:10.1449px;line-height:11.8477px;font-family:Roboto;-inkscape-font-specification:Roboto;text-align:start;letter-spacing:0.0946347px;text-anchor:start;fill:#4d4d4d;stroke-width:0.500001"
           x="16.944204"
           y="91.205856"
           id="tspan3"><tspan
   style="font-weight:bold;letter-spacing:0.0946347px;stroke-width:0.500001"
   id="tspan10">E</tspan>volution and <tspan
   style="font-weight:bold;letter-spacing:0.0946347px;stroke-width:0.500001"
   id="tspan8">L</tspan>inkage</tspan></text>
      <path
         style="fill:#d35f5f;fill-opacity:1;stroke:none;stroke-width:0.264583px;stroke-linecap:butt;stroke-linejoin:miter;stroke-opacity:1"
         d="m 173.37342,25.633187 -1.48641,2.092841 13.60792,9.658096 v -3.146861 c -5.38384,-3.820889 -12.12125,-8.603553 -12.12151,-8.604076 z m -2.22832,3.139785 -6.84982,9.649711 2.09389,1.486163 6.84982,-9.649448 z m 4.18803,2.97285 -6.85006,9.649188 2.09388,1.486162 6.84929,-9.649448 z m 11.82721,0.102206 v 2.390285 3.146598 1.574478 0.648346 4.437788 4.432808 3.407091 0 h 1.0176 3.14922 3.14895 0.77021 c 0,0 1.08154,-6.190444 2.84339,-8.668544 1.31215,-1.846213 3.2792,-3.326114 5.40034,-4.120691 2.71105,-1.016545 8.66803,-0.57025 8.66803,-0.57025 v 18.132975 c 5.44568,0.75553 10.83711,2.1631 15.55715,5.513061 0.82314,0.584403 1.59623,1.207826 2.32686,1.863797 V 38.525962 c 0,0 5.95723,-0.446295 8.66855,0.57025 2.11983,0.794578 4.08871,2.274452 5.40035,4.12069 1.76184,2.478074 2.84313,8.668545 2.84313,8.668545 h 8.09828 V 31.848054 h -30.26731 -7.36949 z m -7.6402,2.870385 -6.84983,9.650235 2.09337,1.485376 6.84982,-9.649972 z m 4.18725,2.971802 -6.84983,9.650236 2.09311,1.485377 6.54426,-9.218616 v -0.647824 z m -20.15402,1.778392 -1.48563,2.093364 17.44375,12.380677 c 6.18496,4.38983 13.78088,5.286087 21.30263,5.895124 0,-0.02621 -0.0262,-0.04455 -0.0288,-0.06551 -0.38733,-0.88001 -0.77257,-1.751109 -1.16068,-2.613562 -6.92189,-0.621354 -13.47427,-1.650478 -18.62749,-5.308101 z m 21.94156,4.576418 -4.44959,6.267778 0.69421,0.492418 c 0.46753,0.331773 0.94998,0.639174 1.44502,0.927706 l 2.31036,-3.254046 z m 12.93153,2.343635 c -0.29719,0.804536 -0.57811,1.693195 -0.79588,2.517123 -0.0786,0.299801 -0.14414,0.572085 -0.20966,0.849087 1.65939,2.966299 3.0955,6.208551 4.54183,9.500334 3.32192,7.560276 6.70044,15.382616 13.49602,20.206161 6.1868,4.391142 13.78298,5.285303 21.30657,5.894337 0,-0.0262 -0.0262,-0.04719 -0.0314,-0.07077 -0.38628,-0.87896 -0.77204,-1.748482 -1.15883,-2.609891 -6.92403,-0.621355 -13.47693,-1.649167 -18.63172,-5.307843 -6.04371,-4.28971 -9.30851,-11.585824 -12.62989,-19.145576 -1.77365,-4.036568 -3.56958,-8.143892 -5.88701,-11.83375 z m -12.74468,6.261229 -0.17821,0.25158 c 0.18345,0.07862 0.36873,0.157238 0.55531,0.230615 a 1.6660667,1.6660667 0 0 1 -0.37815,-0.482721 z m 1.49061,0.901498 c 0.27124,0.09434 0.54484,0.188686 0.82131,0.276739 l 0.19655,-0.276739 z m 4.16682,0 -0.70705,0.995581 c 0.89967,0.209649 1.82291,0.38733 2.7611,0.545616 l 1.09386,-1.541197 z m 14.12471,4.084525 v 5.25e-4 c 0,0.0262 0.0262,0.04455 0.0288,0.06551 0.3868,0.880534 0.7723,1.753205 1.16016,2.615919 6.92136,0.621091 13.47269,1.647857 18.62592,5.30522 6.04344,4.289983 9.30824,11.586362 12.62989,19.145598 3.32166,7.559744 6.69992,15.383916 13.49629,20.208246 l 17.44295,12.37989 1.48564,-2.09389 -17.44296,-12.38015 c -6.04424,-4.289977 -9.30956,-11.587153 -12.63093,-19.146636 -3.32167,-7.559488 -6.69967,-15.382613 -13.49551,-20.206419 -6.18497,-4.389831 -13.77984,-5.284253 -21.30133,-5.893552 z m 7.89572,4.823021 -3.33319,4.696182 c 0.46463,0.826549 0.94447,1.627678 1.4458,2.398669 l 4.62857,-6.521744 c -0.89311,-0.217513 -1.80746,-0.407509 -2.74118,-0.573107 z m 5.35501,1.325257 -5.67053,7.990292 c 0.5477,0.704984 1.12057,1.375055 1.72411,2.005314 l 6.40929,-9.029378 c -0.79405,-0.361647 -1.61668,-0.682415 -2.46287,-0.966228 z m 4.75016,2.179059 -6.79871,9.578168 c 0.33125,0.270708 0.67271,0.530152 1.02204,0.778068 0.34986,0.248962 0.70704,0.483776 1.07185,0.708361 l 6.79924,-9.578434 c -0.33125,-0.270711 -0.67324,-0.530942 -1.0231,-0.779114 -0.34934,-0.248962 -0.70783,-0.482198 -1.07132,-0.707049 z m 3.99465,3.245398 -6.40982,9.029407 c 0.79483,0.36191 1.61692,0.681895 2.46339,0.965696 l 5.67001,-7.988482 c -0.54744,-0.70495 -1.12058,-1.375336 -1.72358,-2.006621 z m 3.29623,4.225772 -4.62726,6.519888 c 0.89311,0.217515 1.80745,0.407503 2.7404,0.573403 l 3.3324,-4.695404 c -0.46411,-0.826029 -0.94448,-1.626888 -1.44554,-2.397887 z m -18.58504,5.522467 v 21.385974 c 0,0 -0.17034,2.80775 -0.85249,3.97944 -0.57497,0.98587 -1.53806,1.7642 -2.55931,2.27287 -1.08128,0.53828 -3.55254,0.71151 -3.55281,0.71151 v 3.8366 h 15.206 1.40125 15.2052 v -3.8366 c 0,0 -2.47153,-0.17296 -3.55254,-0.71151 -1.02074,-0.50867 -1.98514,-1.287 -2.55931,-2.27287 -0.68294,-1.17169 -0.85223,-3.97944 -0.85198,-3.97944 V 86.332672 c -5.44646,-0.75579 -10.83868,-2.162541 -15.55898,-5.513031 -0.82262,-0.583874 -1.59518,-1.207326 -2.32503,-1.862755 z m 29.23399,4.193556 c 0,0.0262 0.0262,0.04719 0.0314,0.07077 0.38655,0.87922 0.77099,1.748742 1.15859,2.609881 6.9237,0.621102 13.47845,1.6494 18.63324,5.308362 l 17.44297,12.380935 1.4859,-2.09285 -17.44322,-12.38118 c -6.18678,-4.391135 -13.78479,-5.285826 -21.30864,-5.895113 z m 7.42926,4.744921 -3.0921,4.355483 c 0.4594,0.833895 0.93321,1.646297 1.42694,2.42672 l 4.42599,-6.236589 c -0.89966,-0.209646 -1.82213,-0.387594 -2.76083,-0.545614 z m 5.39797,1.267072 -5.51356,7.768625 c 0.53908,0.71726 1.10278,1.39968 1.69661,2.043829 l 6.30683,-8.885002 C 255.918,89.74134 255.087,89.43498 254.23187,89.162435 Z m 4.80837,2.095724 -6.75681,9.519731 c 0.43582,0.37054 0.88421,0.72566 1.35121,1.05742 l 0.69603,0.49425 6.84878,-9.649706 -0.69552,-0.494519 c -0.46699,-0.331508 -0.94919,-0.638908 -1.44369,-0.927176 z m 4.23362,2.907597 -6.84877,9.649184 2.09337,1.48642 6.84877,-9.650227 z m 4.18672,2.971805 -6.84876,9.649439 2.09336,1.48591 6.84931,-9.649704 z m 4.18779,2.971789 -6.84929,9.64946 2.09336,1.4859 6.84982,-9.64919 z m 4.18647,2.97155 -6.84904,9.64971 2.09258,1.48564 6.84878,-9.64997 z"
         id="path5288-6"
         inkscape:connector-curvature="0"
         inkscape:export-filename="icon.png"
         inkscape:export-xdpi="96"
         inkscape:export-ydpi="96" />
      <text
         xml:space="preserve"
         style="font-style:normal;font-variant:normal;font-weight:normal;font-stretch:normal;font-size:4.15266px;line-height:4.84965px;font-family:Roboto;-inkscape-font-specification:Roboto;text-align:start;letter-spacing:0px;writing-mode:lr-tb;direction:ltr;text-anchor:start;fill:#4d4d4d;fill-opacity:0.996078;fill-rule:evenodd;stroke-width:0.5;stroke-linecap:round;stroke-linejoin:round"
         x="108.16415"
         y="130.70879"
         id="text11"><tspan
           sodipodi:role="line"
           id="tspan11"
           style="stroke-width:0.5"
           x="108.16415"
           y="130.70879">Copyright © Buckler Lab. All rights reserved.</tspan></text>
    </g>
  </g>
</svg>
