<?xml version="1.0" encoding="UTF-8" standalone="no"?>
<!-- Created with Inkscape (http://www.inkscape.org/) -->

<svg
   width="478.60574"
   height="371.74887"
   viewBox="0 0 126.63111 98.358558"
   version="1.1"
   id="svg1"
   inkscape:version="1.4.2 (ebf0e940, 2025-05-08)"
   sodipodi:docname="tassel_icon.svg"
   inkscape:export-filename="tassel_icon.png"
   inkscape:export-xdpi="96"
   inkscape:export-ydpi="96"
   xmlns:inkscape="http://www.inkscape.org/namespaces/inkscape"
   xmlns:sodipodi="http://sodipodi.sourceforge.net/DTD/sodipodi-0.dtd"
   xmlns="http://www.w3.org/2000/svg"
   xmlns:svg="http://www.w3.org/2000/svg">
  <sodipodi:namedview
     id="namedview1"
     pagecolor="#ffffff"
     bordercolor="#000000"
     borderopacity="0.25"
     inkscape:showpageshadow="2"
     inkscape:pageopacity="0.0"
     inkscape:pagecheckerboard="0"
     inkscape:deskcolor="#d1d1d1"
     inkscape:document-units="mm"
     inkscape:zoom="0.9184353"
     inkscape:cx="80.027412"
     inkscape:cy="281.45695"
     inkscape:window-width="1680"
     inkscape:window-height="1126"
     inkscape:window-x="871"
     inkscape:window-y="186"
     inkscape:window-maximized="0"
     inkscape:current-layer="layer1"
     showgrid="false" />
  <defs
     id="defs1" />
  <g
     inkscape:label="Layer 1"
     inkscape:groupmode="layer"
     id="layer1"
     transform="translate(-27.748676,-45.429425)">
    <path
       style="fill:#d35f5f;fill-opacity:1;stroke:none;stroke-width:0.264583px;stroke-linecap:butt;stroke-linejoin:miter;stroke-opacity:1"
       d="m 39.872174,45.429425 -1.593947,2.244228 14.592262,10.356723 V 54.655884 C 47.097207,50.558608 39.872455,45.429986 39.872174,45.429425 Z m -2.389515,3.366904 -7.345311,10.347731 2.245353,1.593666 7.34531,-10.347449 z m 4.490985,3.187894 -7.345591,10.34717 2.245353,1.593666 7.344747,-10.34745 z m 12.682729,0.109598 v 2.563188 3.37421 1.68837 0.695245 4.758798 4.75346 3.653545 0 h 1.091202 3.377021 3.37674 0.825919 c 0,0 1.159772,-6.638235 3.049071,-9.295591 1.407069,-1.97976 3.516407,-3.56671 5.790986,-4.418764 2.907156,-1.090078 9.295029,-0.6115 9.295029,-0.6115 v 19.44464 c 5.839602,0.810182 11.621034,2.31957 16.682491,5.911853 0.882686,0.626676 1.711696,1.295195 2.495178,1.998617 V 59.25481 c 0,0 6.38816,-0.478578 9.2956,0.6115 2.27317,0.852054 4.38447,2.438976 5.79098,4.418764 1.8893,2.657328 3.04879,9.295591 3.04879,9.295591 h 8.68409 V 52.09385 H 95.002744 87.100172 Z m -8.192867,3.078017 -7.345309,10.348293 2.24479,1.592822 7.34531,-10.348011 z m 4.490143,3.18677 -7.34531,10.348293 2.24451,1.592823 7.01764,-9.885452 V 59.719589 Z M 29.34178,60.265641 27.748676,62.51043 46.454232,75.786675 c 6.632362,4.707372 14.777736,5.668461 22.843582,6.321552 0,-0.0281 -0.0281,-0.04777 -0.03091,-0.07025 -0.415348,-0.943666 -0.828447,-1.877777 -1.244638,-2.802615 -7.422591,-0.6663 -14.448942,-1.769867 -19.974927,-5.692068 z m 23.528709,4.907457 -4.771445,6.721164 0.744423,0.528037 c 0.501341,0.355772 1.018699,0.685409 1.549546,0.994812 l 2.477476,-3.48943 z m 13.866949,2.513165 c -0.318678,0.862732 -0.619931,1.815673 -0.853459,2.699201 -0.08431,0.321487 -0.154562,0.613467 -0.224817,0.910506 1.779421,3.180869 3.319413,6.657652 4.870364,10.187549 3.562214,8.107156 7.185128,16.495331 14.472266,21.667791 6.634329,4.70878 14.779984,5.66762 22.847798,6.32071 0,-0.0281 -0.0281,-0.0506 -0.0337,-0.0759 -0.41422,-0.94254 -0.82789,-1.87496 -1.24266,-2.79868 -7.424875,-0.6663 -14.451788,-1.76846 -19.979458,-5.69179 C 80.112881,96.305643 76.611929,88.481755 73.050278,80.375162 71.148331,76.046606 69.222499,71.642174 66.737436,67.685407 Z m -13.666582,6.714139 -0.191093,0.269779 c 0.196713,0.08431 0.395395,0.168612 0.595482,0.247297 a 1.786583,1.786583 0 0 1 -0.405513,-0.517639 z m 1.598444,0.966709 c 0.290857,0.101165 0.584242,0.202335 0.880718,0.296758 l 0.210765,-0.296758 z m 4.468224,0 -0.758193,1.067597 c 0.964742,0.224815 1.954777,0.415348 2.96083,0.585084 l 1.172979,-1.652681 z m 15.146434,4.379983 v 5.63e-4 c 0,0.0281 0.0281,0.04777 0.03091,0.07025 0.414785,0.944228 0.828166,1.880025 1.244077,2.805144 7.422028,0.666019 14.447255,1.767056 19.97324,5.688977 6.480615,4.600303 9.981565,12.424472 13.543495,20.530512 3.56193,8.10659 7.18456,16.49673 14.47255,21.67003 l 18.70471,13.27541 1.59311,-2.24536 -18.70472,-13.27568 c -6.48145,-4.6003 -9.98297,-12.42532 -13.54461,-20.53163 C 108.03478,99.629002 104.41243,91.239983 97.12501,86.067242 90.492649,81.35987 82.348398,80.400748 74.282834,79.747375 Z m 8.466862,5.171898 -3.574298,5.035885 c 0.498249,0.886338 1.012797,1.745418 1.550388,2.572179 l 4.963382,-6.9935 C 84.732575,85.300309 83.752095,85.09657 82.75082,84.918992 Z m 5.742369,1.421121 -6.080718,8.568281 c 0.587333,0.755973 1.201643,1.474514 1.848833,2.150368 l 6.872914,-9.682528 c -0.851491,-0.387807 -1.733615,-0.731777 -2.641029,-1.036121 z m 5.093775,2.336684 -7.29051,10.271012 c 0.355209,0.290294 0.721378,0.568505 1.095978,0.834349 0.375163,0.266972 0.758193,0.518772 1.149374,0.759602 l 7.291073,-10.271297 c -0.355211,-0.290294 -0.721942,-0.569348 -1.097104,-0.835473 -0.3746,-0.26697 -0.759036,-0.517078 -1.148811,-0.758193 z m 4.283593,3.480156 -6.873477,9.682557 c 0.852335,0.38809 1.733895,0.73122 2.641591,1.03555 l 6.080157,-8.566335 c -0.587052,-0.755944 -1.201643,-1.474822 -1.848271,-2.151772 z m 3.534673,4.531452 -4.961975,6.991505 c 0.957717,0.23325 1.938197,0.43698 2.938629,0.61488 l 3.573456,-5.035048 c -0.49769,-0.885777 -1.0128,-1.744575 -1.55011,-2.571337 z m -19.9294,5.921935 v 22.93295 c 0,0 -0.182664,3.01086 -0.914159,4.2673 -0.616559,1.05719 -1.649308,1.89182 -2.744445,2.43728 -1.15949,0.57722 -3.809511,0.76298 -3.809793,0.76298 v 4.11413 h 16.305925 1.502616 16.305086 v -4.11413 c 0,0 -2.65031,-0.18547 -3.80952,-0.76298 -1.09457,-0.54546 -2.12873,-1.38009 -2.74444,-2.43728 -0.73234,-1.25644 -0.91388,-4.2673 -0.9136,-4.2673 v -15.02363 c -5.840445,-0.81046 -11.622719,-2.31897 -16.684457,-5.91182 -0.882123,-0.62611 -1.710572,-1.29466 -2.493213,-1.9975 z m 31.34866,4.4969 c 0,0.0281 0.0281,0.0506 0.0337,0.0759 0.4145,0.94282 0.82676,1.87524 1.24239,2.79867 7.42454,0.66603 14.45343,1.76871 19.9811,5.69235 l 18.70472,13.27652 1.59338,-2.24425 -18.70499,-13.27677 c -6.63433,-4.70878 -14.78195,-5.66819 -22.85004,-6.32155 z m 7.96665,5.08815 -3.31576,4.67055 c 0.49263,0.89421 1.00071,1.76538 1.53016,2.60225 l 4.74614,-6.68772 c -0.96474,-0.22481 -1.95393,-0.41563 -2.96054,-0.58508 z m 5.78845,1.35873 -5.91239,8.33057 c 0.57807,0.76915 1.18254,1.50093 1.81933,2.19168 l 6.76304,-9.52771 c -0.8619,-0.37376 -1.75301,-0.70228 -2.66998,-0.99454 z m 5.15617,2.24732 -7.24556,10.20835 c 0.46734,0.39735 0.94817,0.77815 1.44895,1.13391 l 0.74638,0.53 7.34419,-10.34773 -0.74583,-0.53028 c -0.50077,-0.35549 -1.01785,-0.68513 -1.54813,-0.99425 z m 4.53987,3.11792 -7.34418,10.34717 2.24479,1.59395 7.34418,-10.3483 z m 4.48958,3.18678 -7.34418,10.34744 2.24479,1.59339 7.34475,-10.34773 z m 4.49071,3.18676 -7.34474,10.34746 2.24478,1.59338 7.34532,-10.34717 z m 4.4893,3.18649 -7.34447,10.34773 2.24395,1.59311 7.34419,-10.34802 z"
       id="path5288-6"
       inkscape:connector-curvature="0"
       inkscape:export-filename="icon.png"
       inkscape:export-xdpi="96"
       inkscape:export-ydpi="96" />
  </g>
</svg>
